# xmcd CD database file
#
# Track frame offsets:
#	150
#	17668
#	31018
#	45414
#	59152
#	75459
#	88967
#	105087
#	121099
#	136272
#	154171
#	168040
#
# Disc length: 2431 seconds
#
# Revision: 0
# Processed by: cddbd v1.5.2PL0 Copyright (c) Steve Scherf et al.
# Submitted via: CDex 1.51
#
DISCID=83097d0c
DTITLE=Truck Stop - Country Romantik
DYEAR=1900
DGENRE=Country
TTITLE0=Traeume von den Cowboys
TTITLE1=Alles Gute für Dich
TTITLE2=Zwoelf Rosen
TTITLE3=Ein kaltes Bier, ein warmes Herz
TTITLE4=Ball der einsamen Herzen
TTITLE5=Es ist kalt
TTITLE6=Wenn Du nur willst
TTITLE7=Darf mein Hund mit in den Himmel
TTITLE8=Es tut so gut
TTITLE9=Kleine Cowboys werden gross
TTITLE10=Kleine Maedchen
TTITLE11=Keine Frau ...
EXTD=
EXTT0=
EXTT1=
EXTT2=
EXTT3=
EXTT4=
EXTT5=
EXTT6=
EXTT7=
EXTT8=
EXTT9=
EXTT10=
EXTT11=
PLAYORDER=
